<svg width="136" height="136" viewBox="0 0 136 136" fill="none" xmlns="http://www.w3.org/2000/svg">
<path d="M67.6758 0C60.3516 0 53.7012 0.594727 49.043 1.50879C47.2266 1.86914 45.8203 2.28516 44.7363 2.68359C45.8203 3.08203 47.2266 3.49805 49.043 3.8584C53.7012 4.77246 60.3516 5.36719 67.6758 5.36719C75 5.36719 81.6504 4.77246 86.3086 3.8584C88.125 3.49805 89.5312 3.08203 90.6152 2.68359C89.5312 2.28516 88.125 1.86914 86.3086 1.50879C81.6504 0.594727 75 0 67.6758 0ZM38.1445 1.55566C32.5488 4.16309 29.5312 9.17871 30.293 14.1768C30.8789 17.7861 33.4863 21.0645 37.6172 22.7637C39.9902 23.7598 42.8613 24.2871 46.2305 24.2578C50.127 31.4941 55.4004 37.4707 61.0547 40.2539V53.1152C56.0742 56.1328 52.7637 62.4023 49.5117 68.8477C60.8789 71.748 74.502 71.6016 85.8105 68.8184C82.5879 62.373 79.248 56.1328 74.2969 53.1152V40.2539C79.9512 37.4707 85.2246 31.4941 89.1211 24.2578C92.4902 24.2871 95.3613 23.7598 97.7344 22.7637C101.865 21.0645 104.473 17.7861 105.059 14.1768C105.82 9.17871 102.803 4.16309 97.207 1.55566C97.3242 1.90723 97.3828 2.28223 97.3828 2.68359C97.3828 3.95801 96.709 5.00098 96.0059 5.65723C95.332 6.31348 94.5703 6.75 93.7207 7.14551C92.0215 7.93652 89.8828 8.52832 87.3047 9.03223C82.1777 10.0459 75.293 10.6406 67.6758 10.6406C60.0586 10.6406 53.1738 10.0459 48.0469 9.03223C45.4688 8.52832 43.3301 7.93652 41.6309 7.14551C40.7812 6.75 40.0195 6.31348 39.3457 5.65723C38.6426 5.00098 37.9688 3.95801 37.9688 2.68359C37.9688 2.28223 38.0273 1.90723 38.1445 1.55566ZM40.0781 6.33398C40.752 10.5352 41.9824 14.8037 43.6816 18.8555C42.041 18.6943 40.7227 18.3545 39.6387 17.9062C36.8848 16.7637 35.7715 15.085 35.5078 13.3623C35.1562 11.0391 36.4746 8.04492 40.0781 6.33398ZM95.2734 6.33398C98.877 8.04492 100.195 11.0391 99.8438 13.3623C99.5801 15.085 98.4668 16.7637 95.7129 17.9062C94.6289 18.3545 93.3105 18.6943 91.6699 18.8555C93.3691 14.8037 94.5996 10.5352 95.2734 6.33398ZM115.986 70.6641C112.998 70.7227 110.098 72.1875 107.578 74.8242C104.766 77.8418 102.598 82.3828 102.041 87.627C101.484 92.8711 102.598 97.7637 104.707 101.309C106.846 104.883 109.863 107.051 113.291 107.402C116.748 107.783 120.146 106.318 122.988 103.301C125.83 100.283 127.969 95.7422 128.555 90.498C129.111 85.2539 127.998 80.3613 125.889 76.8164C123.721 73.2422 120.732 71.0742 117.275 70.7227C116.836 70.6641 116.426 70.6641 115.986 70.6641ZM19.3652 70.6641C18.9258 70.6641 18.4863 70.6641 18.0762 70.7227C14.6191 71.1035 11.6309 73.3008 9.49219 76.8164C7.35352 80.3906 6.24023 85.2832 6.82617 90.5273C7.38281 95.7715 9.52148 100.312 12.3633 103.33C15.2051 106.318 18.6035 107.812 22.0605 107.432C25.5176 107.051 28.5059 104.883 30.6445 101.338C32.7832 97.7637 33.8965 92.8711 33.3105 87.627C32.7539 82.3828 30.6152 77.8418 27.7441 74.8242C25.2832 72.2168 22.3535 70.752 19.3652 70.6641ZM83.2031 74.7949C80.0391 75.4102 76.7871 75.8496 73.4766 76.084C77.4316 88.916 84.4336 100.547 92.168 111.855C93.8086 109.453 95.625 107.549 97.6172 106.025C98.4961 105.352 99.4043 104.766 100.312 104.268L100.342 104.238C100.283 104.15 100.254 104.092 100.195 104.004C99.0527 102.1 98.1738 99.9609 97.5586 97.6465C92.3145 91.1719 87.041 84.2871 83.2031 74.7949ZM52.1191 74.8535C48.2812 84.2871 43.0371 91.1719 37.8223 97.6172C37.207 99.9316 36.2988 102.1 35.1562 104.033C35.127 104.092 35.0684 104.18 35.0098 104.238L35.0391 104.268C35.9473 104.766 36.8555 105.352 37.7344 106.025C39.7266 107.549 41.543 109.453 43.1836 111.855C50.918 100.576 57.8906 88.9453 61.875 76.1133C58.5645 75.8789 55.2832 75.4688 52.1191 74.8535ZM125.566 108.135C121.963 111.328 117.48 113.174 112.734 112.646C109.307 112.295 106.23 110.742 103.74 108.428C102.715 108.926 101.748 109.512 100.84 110.215C96.3867 113.613 92.4902 122.461 89.6777 135.352H135.352V117.832C134.707 117.012 132.715 114.463 129.697 111.562C128.408 110.303 126.973 109.131 125.566 108.135ZM9.78516 108.164C8.37891 109.131 6.94336 110.303 5.6543 111.562C2.63672 114.463 0.644531 117.012 0 117.832V135.352H45.6738C42.8613 122.461 38.9648 113.613 34.5117 110.215C33.6035 109.512 32.6367 108.926 31.6113 108.428C29.1211 110.742 26.0742 112.295 22.6172 112.676C17.9004 113.203 13.3594 111.357 9.78516 108.164Z" fill="#E6E6E6"/>
</svg>
