<svg width="351" height="351" viewBox="0 0 351 351" fill="none" xmlns="http://www.w3.org/2000/svg">
<g clip-path="url(#clip0_92_72)">
<path d="M33.0374 141.799L32.7228 207.559C47.2561 207.63 61.166 213.471 71.3934 223.797C81.6208 234.123 87.3283 248.088 87.2607 262.621L131.101 262.831L131.415 197.071L219.096 197.49L218.781 263.25L262.621 263.46C262.693 248.927 268.533 235.017 278.859 224.79C289.185 214.562 303.15 208.855 317.684 208.922L317.998 143.162C303.465 143.091 289.555 137.25 279.328 126.924C269.1 116.598 263.393 102.633 263.46 88.0998L219.62 87.89L219.305 153.65L131.625 153.231L131.94 87.4705L88.0998 87.2607C88.0284 101.794 82.1875 115.704 71.8617 125.931C61.5359 136.159 47.5708 141.866 33.0374 141.799Z" fill="white" fill-opacity="0.3"/>
</g>
<defs>
<clipPath id="clip0_92_72">
<rect width="248" height="248" fill="white" transform="translate(174.521 350.721) rotate(-134.726)"/>
</clipPath>
</defs>
</svg>
