<svg width="301" height="200" viewBox="0 0 301 200" fill="none" xmlns="http://www.w3.org/2000/svg">
<g clip-path="url(#clip0_206_20)">
<path d="M22.0727 77.2961L138.086 30.7568L172.991 117.767L56.9772 164.306L22.0727 77.2961Z" fill="#E8EAF6"/>
<path d="M126.568 119.554L134.689 116.296L114.37 107.612L109.507 118.991L129.826 127.675L126.568 119.554ZM91.7644 133.516L83.6435 136.774L92.3277 116.455L103.706 121.318L95.0222 141.637L91.7644 133.516Z" fill="#5C6BC0"/>
<path d="M49.3559 86.554L124.765 56.3034L129.419 67.9047L54.0099 98.1553L49.3559 86.554ZM96.3681 94.6313C88.2472 97.8891 84.4261 106.829 87.6839 114.95C90.9416 123.071 99.882 126.892 108.003 123.635C116.124 120.377 119.945 111.437 116.687 103.316C113.429 95.1946 104.489 91.3736 96.3681 94.6313ZM105.676 117.834C100.745 119.812 95.4625 117.554 93.4845 112.623C91.5066 107.693 93.7645 102.41 98.6951 100.432C103.626 98.4541 108.909 100.712 110.887 105.643C112.864 110.573 110.607 115.856 105.676 117.834Z" fill="#9FA8DA"/>
<path d="M18.0089 75.5593L55.2404 168.37L177.054 119.504L139.823 26.693L18.0089 75.5593ZM165.436 107.329C160.506 109.307 158.248 114.59 160.226 119.52L67.4151 156.752C65.4371 151.821 60.1542 149.563 55.2236 151.541L29.627 87.734C34.5575 85.7561 36.8154 80.4731 34.8375 75.5426L127.648 38.3111C129.626 43.2417 134.909 45.4996 139.84 43.5216L165.436 107.329Z" fill="#9FA8DA"/>
</g>
<g clip-path="url(#clip1_206_20)">
<path d="M182.549 26.9358L269.78 61.2859L223.979 177.593L136.749 143.243L182.549 26.9358Z" fill="#FBE9E7"/>
<path d="M205.825 146.934L213.967 150.14L205.153 129.877L193.806 134.812L202.619 155.076L205.825 146.934ZM170.933 133.194L162.792 129.988L183.055 121.175L187.991 132.522L167.727 141.336L170.933 133.194Z" fill="#F4511E"/>
<path d="M189.69 59.9749L242.029 80.5849L237.448 92.2156L185.11 71.6056L189.69 59.9749ZM181.675 80.3286L234.013 100.939L231.723 106.754L179.385 86.144L181.675 80.3286ZM200.974 108.08C192.833 104.874 183.917 108.752 180.711 116.893C177.505 125.035 181.383 133.95 189.524 137.156C197.666 140.362 206.582 136.485 209.788 128.343C212.994 120.202 209.116 111.286 200.974 108.08ZM191.814 131.341C186.871 129.395 184.58 124.126 186.526 119.183C188.473 114.24 193.741 111.949 198.684 113.895C203.627 115.842 205.919 121.11 203.972 126.053C202.026 130.996 196.757 133.288 191.814 131.341Z" fill="#FF8A65"/>
<path d="M180.787 22.8831L132.696 145.006L225.742 181.646L273.832 59.5232L180.787 22.8831ZM225.652 164.817C220.709 162.871 215.44 165.162 213.494 170.105L149.525 144.915C151.471 139.972 149.18 134.704 144.237 132.757L180.877 39.7115C185.82 41.658 191.088 39.3665 193.035 34.4234L257.004 59.6135C255.057 64.5566 257.349 69.8251 262.292 71.7716L225.652 164.817Z" fill="#FF8A65"/>
</g>
<defs>
<clipPath id="clip0_206_20">
<rect width="150" height="150" fill="white" transform="translate(0 55.8472) rotate(-21.8584)"/>
</clipPath>
<clipPath id="clip1_206_20">
<rect width="150" height="150" fill="white" transform="translate(160.96 5) rotate(21.4939)"/>
</clipPath>
</defs>
</svg>
