<svg width="60" height="60" viewBox="0 0 60 60" fill="none" xmlns="http://www.w3.org/2000/svg">
<g clip-path="url(#clip0_122_2)">
<path d="M30 5.26798e-06C37.6072 -0.00450021 44.9321 2.88115 50.4923 8.07298C56.0524 13.2648 59.4326 20.375 59.9486 27.9648C60.4647 35.5545 58.0782 43.0569 53.2721 48.9536C48.4659 54.8503 41.5991 58.7009 34.0612 59.7263V38.145H41.8237L43.0462 30.2213H34.0612V25.8863C34.0612 22.7775 35.0175 19.9988 37.7025 19.6988L38.1975 19.6725H43.1212V12.7538L42.03 12.6188C40.98 12.5063 39.3637 12.3788 36.9675 12.3788C29.9925 12.3788 25.8 15.9638 25.53 24.09L25.515 24.945V30.225H18.0937V38.1488H25.5187V59.6738C18.0407 58.5363 11.268 54.6166 6.55635 48.6992C1.84467 42.7818 -0.458432 35.3032 0.108005 27.7604C0.674443 20.2175 4.06862 13.1668 9.61122 8.01948C15.1538 2.87213 22.4359 0.00788383 30 5.26798e-06Z" fill="#274BFF"/>
</g>
<defs>
<clipPath id="clip0_122_2">
<rect width="60" height="60" fill="white"/>
</clipPath>
</defs>
</svg>
