<svg width="135" height="126" viewBox="0 0 135 126" fill="none" xmlns="http://www.w3.org/2000/svg">
<path d="M21.159 4.10145L-1.18744e-06 30.1824C5.76341 34.8594 9.43323 41.634 10.2024 49.0164C10.9716 56.3988 8.77716 63.7844 4.10169 69.5491L21.489 83.655L42.648 57.574L77.4226 85.786L56.2637 111.867L73.651 125.973C78.328 120.21 85.1026 116.54 92.485 115.771C99.8673 115.001 107.253 117.196 113.018 121.871L134.177 95.7903C128.413 91.1133 124.743 84.3387 123.974 76.9563C123.205 69.5739 125.399 62.1883 130.075 56.4236L112.688 42.3177L91.5286 68.3987L56.7539 40.1867L77.9129 14.1057L60.5256 -0.000238652C55.8486 5.76317 49.074 9.433 41.6916 10.2022C34.3092 10.9714 26.9236 8.77693 21.159 4.10145Z" fill="white" fill-opacity="0.3"/>
</svg>
