<svg width="150" height="150" viewBox="0 0 150 150" fill="none" xmlns="http://www.w3.org/2000/svg">
<path d="M62.5 58.125L55.4688 75H69.5312L62.5 58.125Z" fill="#E6E6E6"/>
<path fill-rule="evenodd" clip-rule="evenodd" d="M118.75 46.875L87.5 12.5H43.75C40.4348 12.5 37.2554 13.817 34.9112 16.1612C32.567 18.5054 31.25 21.6848 31.25 25V125C31.25 128.315 32.567 131.495 34.9112 133.839C37.2554 136.183 40.4348 137.5 43.75 137.5H106.25C109.565 137.5 112.745 136.183 115.089 133.839C117.433 131.495 118.75 128.315 118.75 125V46.875ZM62.5 46.875C63.1168 46.875 63.7198 47.0574 64.233 47.3994C64.7463 47.7414 65.1469 48.2276 65.3844 48.7969L81.0094 86.2969C81.3285 87.0619 81.3306 87.9223 81.0153 88.6888C80.7 89.4554 80.0931 90.0653 79.3281 90.3844C78.5631 90.7035 77.7027 90.7056 76.9362 90.3903C76.1696 90.075 75.5597 89.4681 75.2406 88.7031L72.1344 81.25H52.8656L49.7594 88.7031C49.4403 89.4681 48.8304 90.075 48.0638 90.3903C47.2973 90.7056 46.4369 90.7035 45.6719 90.3844C44.9069 90.0653 44.3 89.4554 43.9847 88.6888C43.6694 87.9223 43.6715 87.0619 43.9906 86.2969L59.6156 48.7969C59.8531 48.2276 60.2537 47.7414 60.767 47.3994C61.2802 47.0574 61.8832 46.875 62.5 46.875ZM46.875 100C46.0462 100 45.2513 100.329 44.6653 100.915C44.0792 101.501 43.75 102.296 43.75 103.125C43.75 103.954 44.0792 104.749 44.6653 105.335C45.2513 105.921 46.0462 106.25 46.875 106.25H103.125C103.954 106.25 104.749 105.921 105.335 105.335C105.921 104.749 106.25 103.954 106.25 103.125C106.25 102.296 105.921 101.501 105.335 100.915C104.749 100.329 103.954 100 103.125 100H46.875ZM43.75 115.625C43.75 114.796 44.0792 114.001 44.6653 113.415C45.2513 112.829 46.0462 112.5 46.875 112.5H84.375C85.2038 112.5 85.9987 112.829 86.5847 113.415C87.1708 114.001 87.5 114.796 87.5 115.625C87.5 116.454 87.1708 117.249 86.5847 117.835C85.9987 118.421 85.2038 118.75 84.375 118.75H46.875C46.0462 118.75 45.2513 118.421 44.6653 117.835C44.0792 117.249 43.75 116.454 43.75 115.625ZM96.875 68.75C96.875 67.9212 96.5458 67.1263 95.9597 66.5403C95.3737 65.9542 94.5788 65.625 93.75 65.625C92.9212 65.625 92.1263 65.9542 91.5403 66.5403C90.9542 67.1263 90.625 67.9212 90.625 68.75V75H84.375C83.5462 75 82.7513 75.3292 82.1653 75.9153C81.5792 76.5013 81.25 77.2962 81.25 78.125C81.25 78.9538 81.5792 79.7487 82.1653 80.3347C82.7513 80.9208 83.5462 81.25 84.375 81.25H90.625V87.5C90.625 88.3288 90.9542 89.1237 91.5403 89.7097C92.1263 90.2958 92.9212 90.625 93.75 90.625C94.5788 90.625 95.3737 90.2958 95.9597 89.7097C96.5458 89.1237 96.875 88.3288 96.875 87.5V81.25H103.125C103.954 81.25 104.749 80.9208 105.335 80.3347C105.921 79.7487 106.25 78.9538 106.25 78.125C106.25 77.2962 105.921 76.5013 105.335 75.9153C104.749 75.3292 103.954 75 103.125 75H96.875V68.75ZM87.5 21.875L109.375 46.875H90.625C89.7962 46.875 89.0013 46.5458 88.4153 45.9597C87.8292 45.3737 87.5 44.5788 87.5 43.75V21.875Z" fill="#E6E6E6"/>
<path fill-rule="evenodd" clip-rule="evenodd" d="M81.0094 86.2938C81.099 86.5104 81.1635 86.7312 81.2031 86.95C79.7684 86.434 78.4812 85.5759 77.4531 84.45C77.274 84.4875 77.0969 84.5427 76.9219 84.6156C76.1584 84.9347 75.5526 85.5436 75.2375 86.3087C74.9223 87.0738 74.9234 87.9326 75.2406 88.6969L72.1344 81.25H52.8656L49.7594 88.7C49.4324 89.4526 48.8224 90.0464 48.0613 90.3531C47.3002 90.6598 46.449 90.6549 45.6916 90.3393C44.9341 90.0238 44.3311 89.4229 44.0129 88.6666C43.6946 87.9102 43.6866 87.0591 43.9906 86.2969L47.0937 78.8469L59.6156 48.7969C59.853 48.2275 60.2535 47.7412 60.7668 47.399C61.2801 47.0569 61.8832 46.8744 62.5 46.8744C63.1168 46.8744 63.7199 47.0569 64.2332 47.399C64.7465 47.7412 65.147 48.2275 65.3844 48.7969L68.2688 55.7156V55.7219L75.3 72.5969L81.0094 86.2938ZM80.7688 69.4688L71.1531 46.3937C70.441 44.6857 69.2394 43.2266 67.6995 42.2003C66.1597 41.1739 64.3505 40.6262 62.5 40.6262C60.6495 40.6262 58.8403 41.1739 57.3005 42.2003C55.7606 43.2266 54.559 44.6857 53.8469 46.3937L38.2219 83.8938C37.7729 84.9683 37.5281 86.1171 37.5 87.2812V25C37.5 23.3424 38.1585 21.7527 39.3306 20.5806C40.5027 19.4085 42.0924 18.75 43.75 18.75H82.0875C81.55 19.6813 81.25 20.75 81.25 21.875V43.75C81.25 46.2364 82.2377 48.621 83.9959 50.3791C85.754 52.1373 88.1386 53.125 90.625 53.125H109.375C110.472 53.125 111.55 52.8361 112.5 52.2875V78.125C112.5 75.6386 111.512 73.254 109.754 71.4959C107.996 69.7377 105.611 68.75 103.125 68.75C103.125 66.2636 102.137 63.879 100.379 62.1209C98.621 60.3627 96.2364 59.375 93.75 59.375C91.2636 59.375 88.879 60.3627 87.1209 62.1209C85.3627 63.879 84.375 66.2636 84.375 68.75C83.1373 68.7492 81.9116 68.9935 80.7688 69.4688ZM83.175 75.2406C82.5084 75.5185 81.9587 76.0187 81.6193 76.6561C81.2798 77.2935 81.1716 78.0288 81.313 78.7369C81.4544 79.4451 81.8367 80.0825 82.395 80.5406C82.9532 80.9987 83.6528 81.2494 84.375 81.25H90.625V87.5C90.625 88.3288 90.9542 89.1237 91.5403 89.7097C92.1263 90.2958 92.9212 90.625 93.75 90.625C94.5788 90.625 95.3737 90.2958 95.9597 89.7097C96.5458 89.1237 96.875 88.3288 96.875 87.5V81.25H103.125C103.954 81.25 104.749 80.9208 105.335 80.3347C105.921 79.7487 106.25 78.9538 106.25 78.125C106.25 77.2962 105.921 76.5013 105.335 75.9153C104.749 75.3292 103.954 75 103.125 75H96.875V68.75C96.875 67.9212 96.5458 67.1263 95.9597 66.5403C95.3737 65.9542 94.5788 65.625 93.75 65.625C92.9212 65.625 92.1263 65.9542 91.5403 66.5403C90.9542 67.1263 90.625 67.9212 90.625 68.75V75H84.375C83.962 74.9999 83.5562 75.0817 83.175 75.2406ZM85.9344 92.6844C86.1844 93.0594 86.4594 93.4146 86.7594 93.75H85.1125C85.4125 93.4125 85.6865 93.0573 85.9344 92.6844ZM69.4656 91.1062C69.8844 92.1031 70.45 92.9875 71.1312 93.75L69.4656 91.1062ZM71.1312 93.75H53.8625C54.5438 92.9875 55.1125 92.1031 55.525 91.1062L57.0312 87.5H67.9688L69.4656 91.1062M41.6875 95.3125C40.4283 94.4766 39.3899 93.3486 38.6608 92.0248C37.9317 90.7009 37.5334 89.2204 37.5 87.7094V103.125C37.5 99.8656 39.1656 96.9906 41.6875 95.3125ZM39.8875 109.378C38.3501 107.659 37.5001 105.431 37.5 103.125V115.625C37.5 113.225 38.4062 111.037 39.8875 109.378ZM100.738 93.7531C102.222 92.0969 103.125 89.9031 103.125 87.5031C105.611 87.5031 107.996 86.5154 109.754 84.7572C111.512 82.9991 112.5 80.6114 112.5 78.125V103.128C112.5 100.642 111.512 98.2571 109.754 96.499C107.996 94.7408 105.611 93.7531 103.125 93.7531H100.738ZM93.2156 112.503H103.125C105.611 112.503 107.996 111.515 109.754 109.757C111.512 107.999 112.5 105.615 112.5 103.128V125.003C112.5 126.661 111.842 128.25 110.669 129.423C109.497 130.595 107.908 131.253 106.25 131.253H43.75C42.0924 131.253 40.5027 130.595 39.3306 129.423C38.1585 128.25 37.5 126.661 37.5 125.003V115.631C37.5017 118.117 38.4901 120.5 40.2481 122.256C42.0061 124.013 44.3897 125 46.875 125H84.375C85.8752 125.001 87.3537 124.642 88.6863 123.952C90.0189 123.263 91.1667 122.264 92.0332 121.04C92.8996 119.815 93.4595 118.4 93.6659 116.914C93.8722 115.428 93.7188 113.914 93.2188 112.5M84.3875 106.25H103.125C103.954 106.25 104.749 105.921 105.335 105.335C105.921 104.749 106.25 103.954 106.25 103.125C106.25 102.296 105.921 101.501 105.335 100.915C104.749 100.329 103.954 100 103.125 100H46.875C46.0462 100 45.2513 100.329 44.6653 100.915C44.0792 101.501 43.75 102.296 43.75 103.125C43.75 103.954 44.0792 104.749 44.6653 105.335C45.2513 105.921 46.0462 106.25 46.875 106.25H84.3875ZM118.75 46.875V125C118.75 128.315 117.433 131.495 115.089 133.839C112.745 136.183 109.565 137.5 106.25 137.5H43.75C40.4348 137.5 37.2554 136.183 34.9112 133.839C32.567 131.495 31.25 128.315 31.25 125V25C31.25 21.6848 32.567 18.5054 34.9112 16.1612C37.2554 13.817 40.4348 12.5 43.75 12.5H87.5L118.75 46.875ZM87.5 21.875L109.375 46.875H90.625C89.7962 46.875 89.0013 46.5458 88.4153 45.9597C87.8292 45.3737 87.5 44.5788 87.5 43.75V21.875ZM69.5312 75H55.4688L62.5 58.125L69.5312 75ZM46.875 112.5C46.0462 112.5 45.2513 112.829 44.6653 113.415C44.0792 114.001 43.75 114.796 43.75 115.625C43.75 116.454 44.0792 117.249 44.6653 117.835C45.2513 118.421 46.0462 118.75 46.875 118.75H84.375C85.2038 118.75 85.9987 118.421 86.5847 117.835C87.1708 117.249 87.5 116.454 87.5 115.625C87.5 114.796 87.1708 114.001 86.5847 113.415C85.9987 112.829 85.2038 112.5 84.375 112.5H46.875Z" fill="#E6E6E6"/>
</svg>
