<svg width="150" height="150" viewBox="0 0 150 150" fill="none" xmlns="http://www.w3.org/2000/svg">
<path d="M25.6318 8.2002C17.1973 8.2002 10.4004 14.9912 10.4004 23.4375C10.4004 31.875 17.1973 38.6719 25.6348 38.6719C34.0723 38.6719 40.8691 31.875 40.8691 23.4375C40.8691 14.9912 34.0723 8.2002 25.6318 8.2002ZM64.3066 15.9814C63.5449 17.1914 63.1348 18.7881 62.9883 20.4697C56.8945 20.2647 51.5039 20.168 45.9082 20.2559C46.1426 22.0986 46.2305 23.8154 46.0254 25.5293C51.8262 25.4561 57.4805 25.5293 63.0762 25.7549C63.1641 26.6689 63.2812 27.501 63.4277 28.1748C59.9414 35.332 55.9863 41.1035 53.9648 48.8086C54.6387 56.0156 55.4883 64.3945 60.7324 71.5723C62.1973 77.4023 63.3984 83.2031 65.0098 89.0332C65.625 81.6797 67.2363 73.8281 71.2793 65.8301C70.7227 63.1641 70.6641 60.791 70.8984 58.3008C69.668 55.9277 68.0273 53.5547 65.2734 51.2695C69.0527 44.2969 69.1406 37.7344 70.4297 30.2344L76.1426 28.834C76.6699 28.1338 77.1094 27.3926 77.4316 26.6191C86.5137 27.3633 95.3613 28.4561 103.975 29.8242C104.15 28.04 104.561 26.3115 105.176 24.6797C96.5039 23.2881 87.5977 22.1748 78.457 21.4072C78.457 20.0742 78.3398 18.6885 78.1348 17.2676C73.125 16.5146 68.877 15.4922 64.3066 15.9814ZM124.365 16.6963C115.928 16.6963 109.131 23.4873 109.131 31.9336C109.131 40.3711 115.928 47.168 124.365 47.168C132.803 47.168 139.6 40.3711 139.6 31.9336C139.6 23.4873 132.803 16.6963 124.365 16.6963ZM84.8145 48.3691C82.6172 48.3691 80.5371 49.5117 78.8672 51.7676C77.168 53.9941 76.0254 57.2754 76.0254 60.9375C76.0254 62.8711 76.3477 64.9219 76.9043 66.5332C79.5117 65.625 82.207 64.3359 84.7266 62.1387C87.041 64.0137 89.5898 65.332 92.5781 66.5332C93.2227 64.8047 93.6035 63.0469 93.6035 60.9375C93.6035 57.2754 92.4609 53.9941 90.7617 51.7676C89.0918 49.5117 87.0117 48.3691 84.8145 48.3691ZM84.7266 65.625C82.7344 68.7305 82.1484 69.9316 78.3691 69.4043C79.9219 71.5723 82.0898 73.5352 84.8145 73.5059C87.8613 73.4766 89.8535 71.6016 91.2012 69.4629C87.9199 69.6973 86.25 68.5547 84.7266 65.625ZM102.539 73.916C103.242 81.2695 103.594 85.459 102.979 92.6074C103.623 93.5449 103.799 98.2031 106.23 99.1992C102.48 101.104 101.074 106.26 99.0234 108.281C93.6914 114.609 89.9121 124.482 86.25 133.564C87.334 137.314 88.6816 141.035 90.2637 144.727H106.934C105.293 136.758 102.949 128.701 100.43 120.674C101.426 119.092 101.309 119.502 102.334 113.936C106.699 110.947 116.162 105.938 117.744 99.4043C116.279 93.5742 114.316 89.7949 110.859 84.7852C111.68 77.6953 106.113 75.7617 102.539 73.916ZM73.1543 74.9121C72.1289 77.959 71.4258 80.9766 70.9277 83.9649L75 83.6133C74.0625 80.7715 73.5645 77.7246 73.1543 74.9121ZM92.4609 75.9375C90.293 77.6953 87.6562 78.7793 84.8145 78.7793C82.6465 78.7793 80.625 78.1641 78.8379 77.1094C78.9844 77.8125 79.1016 78.5156 79.2773 79.2188C79.834 81.709 80.6543 84.1406 81.6211 85.7812C82.5586 87.3926 83.3789 87.9785 84.2285 88.0371C85.1367 88.0957 86.1621 87.5977 87.4219 86.0742C88.7109 84.5508 89.9707 82.207 90.9961 79.8047C91.5527 78.4863 92.0508 77.168 92.4609 75.9375ZM97.5586 77.4023C96.7383 79.7168 96.0059 81.6797 95.0391 83.7012L97.9102 83.8477C97.8516 81.709 97.7344 79.5703 97.5586 77.4023ZM77.2266 88.7402L70.2832 89.3262C70.1074 91.582 70.0195 93.8379 69.9609 96.0645L97.6758 95.625C97.8809 93.4863 97.9688 91.3184 97.998 89.1504L91.9922 88.8281C89.7656 91.3477 86.5723 93.4277 83.877 93.3105C80.8594 93.1055 78.6621 91.0547 77.2266 88.7402ZM96.4453 100.898L69.9609 101.338C69.6973 104.062 71.9824 106.084 73.5645 107.285L93.1055 107.227C95.2148 104.883 95.625 103.945 96.4453 100.898ZM69.1406 110.391C64.9219 121.816 60.4395 133.213 57.0703 144.727H72.627C74.5898 141.123 76.377 137.432 77.9004 133.652C77.6953 124.307 73.6523 115.225 69.1406 110.391ZM89.7363 112.529L77.4609 112.559C79.7461 116.396 80.918 120.996 81.8555 125.918L84.2871 125.684C86.0742 121.23 87.3926 116.689 89.7363 112.529Z" fill="#E6E6E6"/>
</svg>
