<svg width="60" height="60" viewBox="0 0 60 60" fill="none" xmlns="http://www.w3.org/2000/svg">
<g clip-path="url(#clip0_122_4)">
<path d="M29.9414 0.234375C38.0273 0.234375 39.0234 0.292969 42.1875 0.410156C45.293 0.527344 47.4609 1.05469 49.3945 1.81641C51.3867 2.57812 53.0273 3.57422 54.668 5.21484C56.3086 6.85547 57.3047 8.49609 58.0664 10.4883C58.8281 12.4219 59.3555 14.5898 59.4727 17.6953C59.5898 20.8594 59.6484 21.8555 59.6484 29.9414C59.6484 38.0273 59.5898 39.0234 59.4727 42.1875C59.3555 45.293 58.8281 47.4609 58.0664 49.3945C57.3047 51.3867 56.3086 53.0273 54.668 54.668C53.0273 56.3086 51.3867 57.3047 49.3945 58.0664C47.4609 58.8281 45.293 59.3555 42.1875 59.4727C39.0234 59.5898 38.0273 59.6484 29.9414 59.6484C21.8555 59.6484 20.8594 59.5898 17.6953 59.4727C14.5898 59.3555 12.4219 58.8281 10.4883 58.0664C8.49609 57.3047 6.85547 56.3086 5.21484 54.668C3.57422 53.0273 2.57812 51.3867 1.81641 49.3945C1.05469 47.4609 0.527344 45.293 0.410156 42.1875C0.292969 39.0234 0.234375 38.0273 0.234375 29.9414C0.234375 21.8555 0.292969 20.8594 0.410156 17.6953C0.527344 14.5898 1.05469 12.4219 1.81641 10.4883C2.57812 8.49609 3.57422 6.85547 5.21484 5.21484C6.85547 3.57422 8.49609 2.57812 10.4883 1.81641C12.4219 1.05469 14.5898 0.527344 17.6953 0.410156C20.8594 0.292969 21.8555 0.234375 29.9414 0.234375ZM29.9414 4.10156C21.5039 4.10156 20.5078 4.16016 17.2266 4.27734C14.1797 4.39453 12.4805 4.98047 11.3672 5.39062C8.49609 6.5625 6.5625 8.49609 5.39062 11.3672C4.98047 12.4805 4.39453 14.1797 4.27734 17.2266C4.16016 20.5078 4.10156 21.5039 4.10156 29.9414C4.10156 38.3789 4.16016 39.375 4.27734 42.6562C4.39453 45.7031 4.98047 47.4023 5.39062 48.5156C6.5625 51.3867 8.49609 53.3203 11.3672 54.4922C12.4805 54.9023 14.1797 55.4883 17.2266 55.6055C20.5078 55.7227 21.5039 55.7812 29.9414 55.7812C38.3789 55.7812 39.375 55.7227 42.6562 55.6055C45.7031 55.4883 47.4023 54.9023 48.5156 54.4922C51.3867 53.3203 53.3203 51.3867 54.4922 48.5156C54.9023 47.4023 55.4883 45.7031 55.6055 42.6562C55.7227 39.375 55.7812 38.3789 55.7812 29.9414C55.7812 21.5039 55.7227 20.5078 55.6055 17.2266C55.4883 14.1797 54.9023 12.4805 54.4922 11.3672C53.3203 8.49609 51.3867 6.5625 48.5156 5.39062C47.4023 4.98047 45.7031 4.39453 42.6562 4.27734C39.375 4.16016 38.3789 4.10156 29.9414 4.10156ZM29.9414 41.8359C36.5039 41.8359 41.8359 36.5039 41.8359 29.9414C41.8359 23.3789 36.5039 18.0469 29.9414 18.0469C23.3789 18.0469 18.0469 23.3789 18.0469 29.9414C18.0469 36.5039 23.3789 41.8359 29.9414 41.8359ZM29.9414 14.707C38.3789 14.707 45.1758 21.5039 45.1758 29.9414C45.1758 38.3789 38.3789 45.1758 29.9414 45.1758C21.5039 45.1758 14.707 38.3789 14.707 29.9414C14.707 21.5039 21.5039 14.707 29.9414 14.707ZM49.3945 14.1211C49.3945 16.1133 47.7539 17.6367 45.7617 17.6367C43.7695 17.6367 42.2461 16.1133 42.2461 14.1211C42.2461 12.1289 43.7695 10.4883 45.7617 10.4883C47.7539 10.4883 49.3945 12.1289 49.3945 14.1211Z" fill="url(#paint0_linear_122_4)"/>
</g>
<defs>
<linearGradient id="paint0_linear_122_4" x1="29.9414" y1="0.234375" x2="29.9414" y2="59.6484" gradientUnits="userSpaceOnUse">
<stop stop-color="#FFF716"/>
<stop offset="1" stop-color="#FF0909"/>
</linearGradient>
<clipPath id="clip0_122_4">
<rect width="60" height="60" fill="white"/>
</clipPath>
</defs>
</svg>
