<svg width="38" height="30" viewBox="0 0 38 30" fill="none" xmlns="http://www.w3.org/2000/svg">
<path d="M3.75 30C2.71875 30 1.83625 29.6331 1.1025 28.8994C0.36875 28.1656 0.00125 27.2825 0 26.25V3.75C0 2.71875 0.3675 1.83625 1.1025 1.1025C1.8375 0.36875 2.72 0.00125 3.75 0H33.75C34.7812 0 35.6644 0.3675 36.3994 1.1025C37.1344 1.8375 37.5013 2.72 37.5 3.75V26.25C37.5 27.2812 37.1331 28.1644 36.3994 28.8994C35.6656 29.6344 34.7825 30.0012 33.75 30H3.75ZM18.75 16.875L33.75 7.5V3.75L18.75 13.125L3.75 3.75V7.5L18.75 16.875Z" fill="#FFFEFA"/>
</svg>
