<svg width="34" height="41" viewBox="0 0 34 41" fill="none" xmlns="http://www.w3.org/2000/svg">
<path d="M16.875 0C21.3505 0 25.6427 1.7779 28.8074 4.94257C31.9721 8.10725 33.75 12.3995 33.75 16.875C33.75 22.6388 30.6075 27.3563 27.2963 30.7406C25.6419 32.4132 23.8367 33.9297 21.9037 35.2706L21.105 35.8144L20.73 36.0637L20.0231 36.5138L19.3931 36.8981L18.6131 37.3519C18.0837 37.6541 17.4846 37.813 16.875 37.813C16.2654 37.813 15.6663 37.6541 15.1369 37.3519L14.3569 36.8981L13.3819 36.2981L13.0219 36.0637L12.2531 35.5519C10.1678 34.141 8.22544 32.5296 6.45375 30.7406C3.1425 27.3544 0 22.6388 0 16.875C0 12.3995 1.7779 8.10725 4.94257 4.94257C8.10725 1.7779 12.3995 0 16.875 0ZM16.875 11.25C16.1363 11.25 15.4049 11.3955 14.7224 11.6782C14.0399 11.9609 13.4199 12.3752 12.8975 12.8975C12.3752 13.4199 11.9609 14.0399 11.6782 14.7224C11.3955 15.4049 11.25 16.1363 11.25 16.875C11.25 17.6137 11.3955 18.3451 11.6782 19.0276C11.9609 19.7101 12.3752 20.3301 12.8975 20.8525C13.4199 21.3748 14.0399 21.7891 14.7224 22.0718C15.4049 22.3545 16.1363 22.5 16.875 22.5C18.3668 22.5 19.7976 21.9074 20.8525 20.8525C21.9074 19.7976 22.5 18.3668 22.5 16.875C22.5 15.3832 21.9074 13.9524 20.8525 12.8975C19.7976 11.8426 18.3668 11.25 16.875 11.25Z" fill="#009DFF"/>
</svg>
