<svg width="138" height="125" viewBox="0 0 138 125" fill="none" xmlns="http://www.w3.org/2000/svg">
<path d="M112.5 125C105.625 125 99.7396 122.552 94.8437 117.656C89.9479 112.76 87.5 106.875 87.5 100V71.875C87.5 67.5 89.0104 63.8021 92.0312 60.7813C95.0521 57.7604 98.75 56.25 103.125 56.25C107.5 56.25 111.198 57.7604 114.219 60.7813C117.24 63.8021 118.75 67.5 118.75 71.875V100H106.25V71.875C106.25 71.0417 105.938 70.3125 105.312 69.6875C104.688 69.0625 103.958 68.75 103.125 68.75C102.292 68.75 101.562 69.0625 100.938 69.6875C100.312 70.3125 100 71.0417 100 71.875V100C100 103.438 101.225 106.381 103.675 108.831C106.125 111.281 109.067 112.504 112.5 112.5C115.933 112.496 118.877 111.273 121.331 108.831C123.785 106.39 125.008 103.446 125 100V75H137.5V100C137.5 106.875 135.052 112.76 130.156 117.656C125.26 122.552 119.375 125 112.5 125ZM0 100V0H125V50H103.125C97.0833 50 91.9271 52.1354 87.6562 56.4062C83.3854 60.6771 81.25 65.8333 81.25 71.875V100H0ZM62.5 56.25L112.5 25V12.5L62.5 43.75L12.5 12.5V25L62.5 56.25Z" fill="#E6E6E6"/>
</svg>
