<svg width="45" height="45" viewBox="0 0 45 45" fill="none" xmlns="http://www.w3.org/2000/svg">
<path d="M31.0425 24.1987L30.1894 25.0481C30.1894 25.0481 28.1587 27.0656 22.6181 21.5568C17.0775 16.0481 19.1081 14.0306 19.1081 14.0306L19.6444 13.4943C20.97 12.1781 21.0956 10.0631 19.9387 8.51809L17.5762 5.36246C16.1437 3.44996 13.3781 3.19684 11.7375 4.82809L8.79374 7.75309C7.98186 8.56309 7.43811 9.60934 7.50374 10.7718C7.67249 13.7475 9.01874 20.1468 16.5262 27.6131C24.4894 35.5293 31.9612 35.8443 35.0156 35.5593C35.9831 35.4693 36.8231 34.9781 37.5 34.3031L40.1625 31.6556C41.9625 29.8687 41.4562 26.8031 39.1537 25.5525L35.5725 23.6043C34.0612 22.785 32.2237 23.025 31.0425 24.1987Z" fill="#03BF03"/>
</svg>
