<svg width="150" height="150" viewBox="0 0 150 150" fill="none" xmlns="http://www.w3.org/2000/svg">
<path d="M125 106.25C128.315 106.25 131.495 104.933 133.839 102.589C136.183 100.245 137.5 97.0652 137.5 93.75V25C137.5 21.6848 136.183 18.5054 133.839 16.1612C131.495 13.817 128.315 12.5 125 12.5H59.125C61.3125 16.3125 62.5 20.625 62.5 25H125V93.75H68.75V106.25M93.75 43.75V56.25H56.25V137.5H43.75V100H31.25V137.5H18.75V87.5H9.375V56.25C9.375 52.9348 10.692 49.7554 13.0362 47.4112C15.3804 45.067 18.5598 43.75 21.875 43.75H93.75ZM50 25C50 28.3152 48.683 31.4946 46.3388 33.8388C43.9946 36.183 40.8152 37.5 37.5 37.5C34.1848 37.5 31.0054 36.183 28.6612 33.8388C26.317 31.4946 25 28.3152 25 25C25 21.6848 26.317 18.5054 28.6612 16.1612C31.0054 13.817 34.1848 12.5 37.5 12.5C40.8152 12.5 43.9946 13.817 46.3388 16.1612C48.683 18.5054 50 21.6848 50 25Z" fill="#E6E6E6"/>
</svg>
