<svg width="52" height="52" viewBox="0 0 52 52" fill="none" xmlns="http://www.w3.org/2000/svg">
<path fill-rule="evenodd" clip-rule="evenodd" d="M25.8217 1.21542e-07C21.2794 -0.000444817 16.8206 1.22073 12.9125 3.53558C9.00432 5.85043 5.79065 9.17376 3.60818 13.1574C1.42571 17.141 0.354761 21.6382 0.50755 26.1779C0.66034 30.7176 2.03124 35.1327 4.47662 38.9605L0.171867 48.9212C0.0143172 49.2856 -0.0363417 49.6874 0.0258006 50.0796C0.0879429 50.4718 0.260324 50.8382 0.522833 51.1361C0.785342 51.434 1.12715 51.6512 1.50839 51.7622C1.88963 51.8732 2.29458 51.8735 2.67599 51.7631L14.9454 48.2037C18.3765 49.833 22.1302 50.6697 25.9285 50.6517C29.7269 50.6338 33.4725 49.7617 36.8881 48.1001C40.3037 46.4384 43.3018 44.0298 45.6605 41.0525C48.0191 38.0752 49.6778 34.6054 50.5139 30.9002C51.3499 27.195 51.3418 23.3492 50.4901 19.6476C49.6385 15.9459 47.9651 12.4832 45.5939 9.51592C43.2228 6.54859 40.2145 4.15262 36.7919 2.5054C33.3693 0.858185 29.6201 0.00191824 25.8217 1.21542e-07ZM29.6519 33.0115C28.6134 33.6256 26.3382 33.8127 22.0139 29.4884C17.6896 25.1641 17.8766 22.8917 18.4908 21.8504C20.0541 21.6912 21.5532 20.6444 22.9435 19.2541C23.9736 18.224 23.1389 15.7255 21.0842 13.6708C19.0268 11.6133 16.5282 10.7814 15.5009 11.8087C8.87908 18.4278 12.1956 27.1127 18.2926 33.2125C24.4733 39.3932 32.9153 42.7823 39.6963 36.0041C40.7236 34.974 39.8917 32.4755 37.8342 30.4208C35.7768 28.3633 33.2782 27.5314 32.2509 28.5588C30.8579 29.949 29.811 31.4481 29.6547 33.0115" fill="#1ECE03"/>
</svg>
